HIERARCHY
ROOT Hips
{
	OFFSET 0.00000 0.00000 0.00000
	CHANNELS 6 Xposition Yposition Zposition Zrotation Yrotation Xrotation 
	JOINT LHipJoint
	{
		OFFSET 0 0 0
		CHANNELS 3 Zrotation Yrotation Xrotation
		JOINT LeftUpLeg
		{
			OFFSET 1.46561 -1.72757 0.83774
			CHANNELS 3 Zrotation Yrotation Xrotation
			JOINT LeftLeg
			{
				OFFSET 2.48915 -6.83890 0.00000
				CHANNELS 3 Zrotation Yrotation Xrotation
				JOINT LeftFoot
				{
					OFFSET 2.60555 -7.15868 0.00000
					CHANNELS 3 Zrotation Yrotation Xrotation
					JOINT LeftToeBase
					{
						OFFSET 0.19248 -0.52884 2.26738
						CHANNELS 3 Zrotation Yrotation Xrotation
						End Site
						{
							OFFSET 0.00000 -0.00000 1.17015
						}
					}
				}
			}
		}
	}
	JOINT RHipJoint
	{
		OFFSET 0 0 0
		CHANNELS 3 Zrotation Yrotation Xrotation
		JOINT RightUpLeg
		{
			OFFSET -1.46918 -1.72757 0.83774
			CHANNELS 3 Zrotation Yrotation Xrotation
			JOINT RightLeg
			{
				OFFSET -2.49034 -6.84216 0.00000
				CHANNELS 3 Zrotation Yrotation Xrotation
				JOINT RightFoot
				{
					OFFSET -2.65971 -7.30750 0.00000
					CHANNELS 3 Zrotation Yrotation Xrotation
					JOINT RightToeBase
					{
						OFFSET -0.19227 -0.52827 2.30785
						CHANNELS 3 Zrotation Yrotation Xrotation
						End Site
						{
							OFFSET -0.00000 -0.00000 1.18972
						}
					}
				}
			}
		}
	}
	JOINT LowerBack
	{
		OFFSET 0 0 0
		CHANNELS 3 Zrotation Yrotation Xrotation
		JOINT Spine
		{
			OFFSET 0.02432 2.19909 -0.28000
			CHANNELS 3 Zrotation Yrotation Xrotation
			JOINT Spine1
			{
				OFFSET 0.03714 2.21816 -0.15261
				CHANNELS 3 Zrotation Yrotation Xrotation
				JOINT Neck
				{
					OFFSET 0 0 0
					CHANNELS 3 Zrotation Yrotation Xrotation
					JOINT Neck1
					{
						OFFSET -0.01896 1.56165 0.21681
						CHANNELS 3 Zrotation Yrotation Xrotation
						JOINT Head
						{
							OFFSET 0.02744 1.56009 0.06764
							CHANNELS 3 Zrotation Yrotation Xrotation
							End Site
							{
								OFFSET 0.01212 1.60574 0.00298
							}
						}
					}
				}
				JOINT LeftShoulder
				{
					OFFSET 0 0 0
					CHANNELS 3 Zrotation Yrotation Xrotation
					JOINT LeftArm
					{
						OFFSET 3.05595 1.48048 -0.60794
						CHANNELS 3 Zrotation Yrotation Xrotation
						JOINT LeftForeArm
						{
							OFFSET 5.20607 -0.00000 -0.00000
							CHANNELS 3 Zrotation Yrotation Xrotation
							JOINT LeftHand
							{
								OFFSET 3.39961 -0.00000 0.00000
								CHANNELS 3 Zrotation Yrotation Xrotation
								JOINT LeftFingerBase
								{
									OFFSET 0 0 0
									CHANNELS 3 Zrotation Yrotation Xrotation
									JOINT LeftHandIndex1
									{
										OFFSET 0.51969 -0.00000 0.00000
										CHANNELS 3 Zrotation Yrotation Xrotation
										End Site
										{
											OFFSET 0.41899 -0.00000 0.00000
										}
									}
								}
								JOINT LThumb
								{
									OFFSET 0 0 0
									CHANNELS 3 Zrotation Yrotation Xrotation
									End Site
									{
										OFFSET 0.42539 -0.00000 0.42539
									}
								}
							}
						}
					}
				}
				JOINT RightShoulder
				{
					OFFSET 0 0 0
					CHANNELS 3 Zrotation Yrotation Xrotation
					JOINT RightArm
					{
						OFFSET -2.99052 1.57608 -0.69102
						CHANNELS 3 Zrotation Yrotation Xrotation
						JOINT RightForeArm
						{
							OFFSET -5.32214 -0.00000 0.00000
							CHANNELS 3 Zrotation Yrotation Xrotation
							JOINT RightHand
							{
								OFFSET -3.51208 -0.00000 0.00000
								CHANNELS 3 Zrotation Yrotation Xrotation
								JOINT RightFingerBase
								{
									OFFSET 0 0 0
									CHANNELS 3 Zrotation Yrotation Xrotation
									JOINT RightHandIndex1
									{
										OFFSET -0.58668 -0.00000 0.00000
										CHANNELS 3 Zrotation Yrotation Xrotation
										End Site
										{
											OFFSET -0.47300 -0.00000 0.00000
										}
									}
								}
								JOINT RThumb
								{
									OFFSET 0 0 0
									CHANNELS 3 Zrotation Yrotation Xrotation
									End Site
									{
										OFFSET -0.48022 -0.00000 0.48022
									}
								}
							}
						}
					}
				}
			}
		}
	}
}
MOTION
Frames: 11
Frame Time: .0083333
0.2900 14.4774 -13.5833 -1.8951 0.0737 37.6435 0.0000 0.0000 0.0000 -4.1126 -16.2343 -75.8502 15.8699 19.5860 77.8438 2.6106 12.1236 -36.6819 1.1826 -6.9016 -19.4243 0.0000 0.0000 0.0000 6.8522 20.6585 -75.2440 -16.0551 -19.6227 78.3957 -3.9662 -6.9761 -40.4391 -0.0251 1.0237 -2.8139 -1.3169 1.0920 27.7121 2.9274 1.4039 2.5252 3.5960 0.8066 -12.7132 -1.2280 0.6431 -22.2043 -3.1872 1.2238 -5.3151 -0.7321 0.5036 2.0692 0.0000 -0.0000 0.0000 -85.4926 -23.1801 10.0970 6.2952 -10.7536 -0.5931 -0.0000 -0.0000 5.5498 27.8626 -7.9597 -4.1868 -7.1250 0.0000 -0.0000 0.7360 20.9927 -0.4235 0.0000 -0.0000 0.0000 82.8849 20.3831 9.9168 -13.5846 22.1377 -2.6696 0.0000 0.0000 27.4899 -24.6444 -22.7600 10.0644 7.1250 -0.0000 -0.0000 4.6710 -54.6966 -1.1145
0.2816 14.5433 -13.4267 -1.9115 0.1156 37.3221 0.0000 0.0000 0.0000 -4.5779 -15.9870 -74.2815 15.5828 19.5256 76.9862 2.6215 12.2413 -36.8164 1.3118 -7.2547 -20.4723 0.0000 0.0000 0.0000 7.4653 20.5352 -73.5757 -15.7486 -19.5610 77.4819 -3.9887 -7.2322 -40.6587 -0.0493 1.4323 -3.9391 -1.3148 1.0862 27.2489 2.9630 1.4074 2.3386 3.6342 0.8125 -12.6863 -1.2772 0.6552 -22.3307 -3.0851 1.2667 -4.8717 -0.6863 0.5216 2.2471 -0.0000 0.0000 0.0000 -85.4459 -24.1400 13.0531 6.8572 -11.6840 -0.7024 -0.0000 -0.0000 1.9515 28.1192 -8.2347 -4.3768 -7.1250 0.0000 -0.0000 0.9042 20.6617 -0.5271 -0.0000 0.0000 0.0000 82.7443 21.5734 10.6837 -13.9427 22.6528 -2.8060 0.0000 0.0000 27.0375 -24.8520 -22.8268 10.1865 7.1250 -0.0000 -0.0000 4.4745 -54.8093 -1.0797
0.2732 14.6180 -13.2599 -1.9181 0.1623 36.9420 0.0000 0.0000 0.0000 -5.1068 -15.7019 -72.5379 15.2502 19.4503 75.9893 2.6196 12.3715 -36.8942 1.4395 -7.5852 -21.4611 0.0000 0.0000 0.0000 8.1282 20.3591 -71.7216 -15.3955 -19.4839 76.4252 -4.0076 -7.4562 -40.8479 -0.0850 1.8804 -5.1753 -1.3066 1.0677 26.7754 2.9876 1.3949 2.1407 3.6621 0.8106 -12.6636 -1.3197 0.6659 -22.4603 -2.9667 1.3072 -4.3595 -0.6361 0.5379 2.4509 -0.0000 -0.0000 0.0000 -85.3457 -24.9854 15.8422 7.4447 -12.6488 -0.8263 -0.0000 0.0000 -1.1981 28.3747 -8.4908 -4.5597 -7.1250 0.0000 -0.0000 1.0714 20.3508 -0.6321 -0.0000 -0.0000 0.0000 82.6103 22.6436 11.5203 -14.3244 23.1965 -2.9547 0.0000 0.0000 26.7466 -24.9837 -22.9053 10.2792 7.1250 -0.0000 -0.0000 4.3613 -54.9193 -1.0640
0.2645 14.7023 -13.0821 -1.8983 0.2281 36.4882 0.0000 0.0000 0.0000 -5.7101 -15.3904 -70.5927 14.8673 19.3563 74.8367 2.6038 12.5097 -36.9062 1.5681 -7.9017 -22.4161 0.0000 0.0000 0.0000 8.8457 20.0961 -69.6604 -14.9923 -19.3878 75.2136 -4.0194 -7.6656 -40.9983 -0.1350 2.3684 -6.5249 -1.2920 1.0313 26.3034 3.0019 1.3599 1.9348 3.6827 0.7980 -12.6472 -1.3639 0.6694 -22.5912 -2.8320 1.3392 -3.7677 -0.5805 0.5498 2.6846 0.0000 0.0000 0.0000 -85.1999 -25.7134 18.4408 8.0466 -13.6283 -0.9631 -0.0000 0.0000 -3.8518 28.6190 -8.6966 -4.7164 -7.1250 0.0000 -0.0000 1.2327 20.0963 -0.7343 0.0000 0.0000 0.0000 82.4857 23.5594 12.4364 -14.7478 23.7937 -3.1235 0.0000 0.0000 26.5351 -25.0673 -22.9950 10.3550 7.1250 -0.0000 -0.0000 4.3025 -55.0316 -1.0613
0.2558 14.7963 -12.8928 -1.8525 0.3098 35.9545 0.0000 0.0000 0.0000 -6.3846 -15.0455 -68.4395 14.4341 19.2404 73.5259 2.5702 12.6583 -36.8347 1.7033 -8.2185 -23.3799 0.0000 0.0000 0.0000 9.6207 19.7335 -67.3852 -14.5366 -19.2688 73.8367 -4.0203 -7.8776 -41.1015 -0.2004 2.8824 -7.9515 -1.2738 0.9819 25.8304 3.0088 1.3078 1.7267 3.6986 0.7772 -12.6293 -1.3962 0.6710 -22.7369 -2.7110 1.3682 -3.0812 -0.5316 0.5580 2.9572 -0.0000 0.0000 0.0000 -85.0241 -26.3335 20.8458 8.6514 -14.6032 -1.1106 -0.0000 0.0000 -6.0204 28.8424 -8.8269 -4.8305 -7.1250 0.0000 -0.0000 1.3833 19.9282 -0.8292 -0.0000 0.0000 0.0000 82.3617 24.2996 13.4488 -15.2234 24.4564 -3.3179 0.0000 0.0000 26.2573 -25.1643 -23.0881 10.4386 7.1250 -0.0000 -0.0000 4.2303 -55.1500 -1.0557
0.2475 14.8997 -12.6917 -1.7742 0.4095 35.3332 0.0000 0.0000 0.0000 -7.1321 -14.6637 -66.0791 13.9537 19.0999 72.0632 2.5177 12.7983 -36.6605 1.8472 -8.5403 -24.3675 0.0000 0.0000 0.0000 10.4435 19.2530 -64.8901 -14.0272 -19.1223 72.2877 -4.0105 -8.0793 -41.1523 -0.2765 3.3822 -9.3447 -1.2530 0.9205 25.3557 3.0100 1.2397 1.5207 3.7116 0.7484 -12.6049 -1.5380 0.6351 -23.3002 -2.5349 1.3938 -1.6821 -0.4281 0.5535 3.0693 -0.0000 -0.0000 0.0000 -84.8410 -26.8469 23.0444 9.2494 -15.5570 -1.2662 -0.0000 0.0000 -7.7698 29.0229 -8.8656 -4.8874 -7.1250 0.0000 -0.0000 1.5094 19.8674 -0.9069 -0.0000 -0.0000 0.0000 82.2290 24.8592 14.5390 -15.7425 25.1702 -3.5357 0.0000 0.0000 25.8430 -25.3202 -23.1675 10.5443 7.1250 -0.0000 -0.0000 4.0910 -55.2665 -1.0324
0.2399 15.0116 -12.4789 -1.6742 0.5153 34.6366 0.0000 0.0000 0.0000 -7.9367 -14.2248 -63.5483 13.4352 18.9337 70.4720 2.4470 12.9014 -36.3652 2.0007 -8.8676 -25.3819 0.0000 0.0000 0.0000 11.3021 18.6587 -62.2017 -13.4659 -18.9440 70.5665 -3.9871 -8.2612 -41.1327 -0.3589 3.8487 -10.6513 -1.2337 0.8548 24.8510 3.0093 1.1645 1.3207 3.7249 0.7159 -12.5548 -1.6147 0.6077 -23.4283 -2.4027 1.3981 -0.7643 -0.3725 0.5475 3.3721 0.0000 0.0000 0.0000 -84.6756 -27.2522 25.0299 9.8374 -16.4848 -1.4284 -0.0000 0.0000 -9.1928 29.1442 -8.8025 -4.8772 -7.1250 0.0000 -0.0000 1.6006 19.9278 -0.9596 0.0000 0.0000 0.0000 82.0789 25.2597 15.6635 -16.2774 25.8954 -3.7663 0.0000 0.0000 25.3133 -25.5378 -23.2258 10.6704 7.1250 -0.0000 -0.0000 3.8784 -55.3736 -0.9887
0.2332 15.1312 -12.2542 -1.5516 0.6131 33.8598 0.0000 0.0000 0.0000 -8.7980 -13.7079 -60.8669 12.8893 18.7418 68.7815 2.3595 12.9333 -35.9270 2.1627 -9.1970 -26.4136 0.0000 0.0000 0.0000 12.1731 17.9546 -59.3298 -12.8569 -18.7299 68.6806 -3.9477 -8.4054 -41.0233 -0.4412 4.2619 -11.8146 -1.2286 0.7911 24.3079 3.0044 1.0865 1.1348 3.7412 0.6817 -12.4654 -1.7206 0.5624 -23.5154 -2.2672 1.3862 0.2339 -0.3125 0.5330 3.6956 -0.0000 0.0000 0.0000 -84.5397 -27.5425 26.8195 10.4180 -17.3907 -1.5976 -0.0000 0.0000 -10.4364 29.2894 -8.7705 -4.8886 -7.1250 0.0000 -0.0000 1.7066 19.9504 -1.0223 -0.0000 0.0000 0.0000 81.9109 25.5335 16.7690 -16.7905 26.5808 -3.9931 0.0000 0.0000 24.7612 -25.7815 -23.2758 10.8060 7.1250 -0.0000 -0.0000 3.6346 -55.4778 -0.9356
0.2276 15.2571 -12.0181 -1.4101 0.7035 33.0135 0.0000 0.0000 0.0000 -9.6958 -13.1015 -58.0809 12.3301 18.5267 67.0314 2.2547 12.8631 -35.3159 2.3340 -9.5297 -27.4667 0.0000 0.0000 0.0000 13.0402 17.1390 -56.3102 -12.2085 -18.4774 66.6480 -3.8881 -8.4996 -40.7975 -0.5223 4.6317 -12.8610 -1.2340 0.7273 23.7038 2.9927 1.0037 0.9675 3.7557 0.6444 -12.3183 -1.8627 0.4962 -23.5225 -2.1171 1.3532 1.2769 -0.2443 0.5087 4.0232 -0.0000 -0.0000 0.0000 -84.4341 -27.7135 28.4204 11.0004 -18.2888 -1.7760 -0.0000 0.0000 -11.6324 29.3837 -8.6955 -4.8659 -7.1250 0.0000 -0.0000 1.7795 20.0270 -1.0630 -0.0000 -0.0000 0.0000 81.7358 25.7230 17.8041 -17.2400 27.1730 -4.1963 0.0000 0.0000 24.3147 -25.9858 -23.3331 10.9270 7.1250 -0.0000 -0.0000 3.4346 -55.5817 -0.8927
0.2224 15.3886 -11.7703 -1.2534 0.7743 32.0968 0.0000 0.0000 0.0000 -10.6139 -12.3857 -55.2157 11.7691 18.2913 65.2552 2.1370 12.6488 -34.5155 2.5131 -9.8618 -28.5302 0.0000 0.0000 0.0000 13.8861 16.2229 -53.1610 -11.5296 -18.1846 64.4898 -3.8020 -8.5397 -40.4215 -0.6050 4.9788 -13.8481 -1.2651 0.6682 23.0237 2.9717 0.9180 0.8270 3.7730 0.6050 -12.0962 -2.0206 0.4194 -23.4169 -1.9681 1.3060 2.3331 -0.1754 0.4776 4.3405 -0.0000 0.0000 0.0000 -84.3579 -27.7624 29.8290 11.5949 -19.1944 -1.9671 -0.0000 0.0000 -12.8924 29.4029 -8.5734 -4.8021 -7.1250 0.0000 -0.0000 1.8023 20.1643 -1.0711 -0.0000 0.0000 0.0000 81.5753 25.8644 18.7151 -17.5889 27.6276 -4.3569 0.0000 0.0000 24.1078 -26.0987 -23.4157 11.0161 7.1250 -0.0000 -0.0000 3.3402 -55.6936 -0.8772
0.2172 15.5249 -11.5113 -1.0864 0.8280 31.1147 0.0000 0.0000 0.0000 -11.5235 -11.5558 -52.3059 11.2165 18.0394 63.4826 2.0065 12.2633 -33.4954 2.6989 -10.1909 -29.5971 0.0000 0.0000 0.0000 14.7004 15.2072 -49.9103 -10.8306 -17.8512 62.2301 -3.6884 -8.4946 -39.8708 -0.6900 5.3106 -14.7965 -1.3211 0.6102 22.2541 2.9387 0.8254 0.7185 3.7904 0.5613 -11.7851 -2.1615 0.3480 -23.1703 -1.8427 1.2569 3.3690 -0.1170 0.4451 4.6327 0.0000 0.0000 0.0000 -84.2942 -27.6984 31.0797 12.1910 -20.0905 -2.1675 -0.0000 0.0000 -14.2668 29.4073 -8.4687 -4.7450 -7.1250 0.0000 -0.0000 1.8132 20.2831 -1.0727 0.0000 0.0000 0.0000 81.4574 25.9764 19.4837 -17.8259 27.9336 -4.4674 0.0000 0.0000 24.1659 -26.0813 -23.5376 11.0606 7.1250 -0.0000 -0.0000 3.3984 -55.8199 -0.9030
